<svg width="12" height="12" viewBox="0 0 12 12" fill="#ffffff" xmlns="http://www.w3.org/2000/svg">
<path d="M0.145899 0.853991C0.0994111 0.807503 0.062535 0.752313 0.0373759 0.691574C0.0122168 0.630835 -0.000732421 0.565735 -0.000732422 0.499991C-0.000732422 0.434247 0.0122168 0.369147 0.0373759 0.308407C0.062535 0.247668 0.0994111 0.192479 0.145899 0.145991C0.192387 0.0995027 0.247576 0.0626266 0.308316 0.0374675C0.369055 0.0123084 0.434155 -0.00064087 0.499899 -0.000640869C0.565643 -0.000640869 0.630743 0.0123084 0.691483 0.0374675C0.752222 0.0626266 0.807411 0.0995027 0.853899 0.145991L5.9999 5.29299L11.1459 0.145991C11.1924 0.0995027 11.2476 0.0626266 11.3083 0.0374675C11.3691 0.0123084 11.4342 -0.000640869 11.4999 -0.000640869C11.5656 -0.000640869 11.6307 0.0123084 11.6915 0.0374675C11.7522 0.0626266 11.8074 0.0995027 11.8539 0.145991C11.9004 0.192479 11.9373 0.247668 11.9624 0.308407C11.9876 0.369147 12.0005 0.434247 12.0005 0.499991C12.0005 0.565735 11.9876 0.630835 11.9624 0.691574C11.9373 0.752313 11.9004 0.807503 11.8539 0.853991L6.7069 5.99999L11.8539 11.146C11.9004 11.1925 11.9373 11.2477 11.9624 11.3084C11.9876 11.3691 12.0005 11.4342 12.0005 11.5C12.0005 11.5657 11.9876 11.6308 11.9624 11.6916C11.9373 11.7523 11.9004 11.8075 11.8539 11.854C11.8074 11.9005 11.7522 11.9374 11.6915 11.9625C11.6307 11.9877 11.5656 12.0006 11.4999 12.0006C11.4342 12.0006 11.3691 11.9877 11.3083 11.9625C11.2476 11.9374 11.1924 11.9005 11.1459 11.854L5.9999 6.70699L0.853899 11.854C0.807411 11.9005 0.752222 11.9374 0.691483 11.9625C0.630743 11.9877 0.565643 12.0006 0.499899 12.0006C0.434155 12.0006 0.369055 11.9877 0.308316 11.9625C0.247576 11.9374 0.192387 11.9005 0.145899 11.854C0.0994111 11.8075 0.062535 11.7523 0.0373759 11.6916C0.0122168 11.6308 -0.000732422 11.5657 -0.000732422 11.5C-0.000732422 11.4342 0.0122168 11.3691 0.0373759 11.3084C0.062535 11.2477 0.0994111 11.1925 0.145899 11.146L5.2929 5.99999L0.145899 0.853991Z" fill="white"/>
</svg>